<?xml version="1.0" encoding="UTF-8"?>
<svg version="1.1" xmlns="http://www.w3.org/2000/svg" width="500" height="500">
<path d="M0 0 C12.78540996 9.27490738 18.71194836 23.06825073 21.40673828 38.29882812 C28.44790797 85.79453812 10.3460555 133.47829439 -9 176 C-8.43345703 175.06994141 -8.43345703 175.06994141 -7.85546875 174.12109375 C2.23616966 157.88466381 14.00627703 142.30378945 26.94921875 128.234375 C28.86385691 126.14833114 30.71822958 124.02317954 32.5625 121.875 C38.57866243 115.00528592 45.02762013 108.98922835 52.16015625 103.28515625 C54.00427148 101.80123959 55.82637714 100.28938955 57.62109375 98.74609375 C76.61072533 82.52166855 99.73963577 71.48346496 125.02685547 72.82714844 C129.02987099 73.17782092 132.43878281 74.1755733 136 76 C137.5778125 76.7734375 137.5778125 76.7734375 139.1875 77.5625 C145.65384045 83.16666173 148.91212174 90.38266786 149.93359375 98.8125 C150.25569015 114.27312704 142.05641036 129.65705526 132 141 C131.32324219 141.79535156 130.64648438 142.59070313 129.94921875 143.41015625 C116.57622791 158.77840683 100.38590505 170.93730994 82.75 180.98828125 C81.13825747 181.9200699 79.55204031 182.89564517 77.96875 183.875 C59.74183835 194.92161312 39.11320604 203.11191574 19 210 C19.75168457 209.86424561 20.50336914 209.72849121 21.27783203 209.58862305 C68.86154415 201.08973327 127.61873777 191.94088134 171.19140625 218.98046875 C173.90103407 220.88642465 176.46512692 222.86849868 179 225 C180.01513672 225.84691406 180.01513672 225.84691406 181.05078125 226.7109375 C186.6673464 231.8343995 191.37823667 239.44490142 192.23828125 247.12890625 C192.51286067 256.13222101 189.97042725 263.22130191 184 270 C167.73882713 284.55237165 144.72621354 287.10613145 123.71289062 286.16845703 C89.49177629 284.04349583 57.76902273 273.53294326 26.47509766 260.04003906 C23.01909463 258.58782236 19.52200601 257.28298691 16 256 C17.02996094 256.71542969 18.05992187 257.43085938 19.12109375 258.16796875 C46.69922939 277.41871714 74.31501949 298.32840571 94 326 C94.63856934 326.88002686 94.63856934 326.88002686 95.29003906 327.77783203 C108.67907809 346.35599602 118.75697412 367.55701377 116 391 C114.35829239 398.08480235 111.02313235 404.34675143 104.8203125 408.4375 C94.8821436 414.17231222 86.1800946 413.73585982 75.22875977 410.97460938 C44.87132759 402.45967674 23.36804479 372.06045143 8.30273438 346.22949219 C7.46335501 344.79298313 6.6162618 343.36093993 5.75976562 341.93457031 C-0.25956444 331.90720002 -5.16544841 321.46704143 -9.8125 310.75 C-10.08535828 310.12250854 -10.35821655 309.49501709 -10.63934326 308.84851074 C-14.46181787 300.01888045 -17.86754385 291.09450909 -21 282 C-20.82871582 283.060979 -20.65743164 284.12195801 -20.48095703 285.21508789 C-2.77372752 395.37014438 -2.77372752 395.37014438 -31.9375 437 C-33.26222305 438.69016389 -34.61526895 440.35863926 -36 442 C-36.62648437 442.75023437 -37.25296875 443.50046875 -37.8984375 444.2734375 C-43.53149518 450.45830491 -49.90147577 454.25057837 -58.2421875 455.4765625 C-67.04723182 455.87019978 -73.5397378 453.90971106 -80.18359375 448.0859375 C-95.93253047 431.71180669 -97.54551787 408.17084179 -97.2734375 386.65234375 C-96.14632304 348.65965897 -81.57928196 312.11121295 -66 278 C-69.5450402 282.66345781 -72.99391449 287.37728161 -76.3359375 292.18823242 C-81.58583676 299.74103888 -87.03462662 306.99144588 -93 314 C-93.83144531 315.01578125 -94.66289062 316.0315625 -95.51953125 317.078125 C-118.28015455 344.64870974 -148.68937649 374.08356573 -185.65234375 379.5390625 C-195.66839196 380.47432867 -205.50925249 379.91886133 -214 374 C-220.63632351 368.24318925 -223.28755435 361.98454344 -224.3125 353.375 C-225.15648745 335.22926988 -214.13019545 319.26971857 -202.50244141 306.33398438 C-192.41369707 295.48340437 -181.00874666 286.57408607 -168.75 278.3125 C-168.10562988 277.87784424 -167.46125977 277.44318848 -166.79736328 276.99536133 C-162.25136835 274 -162.25136835 274 -160 274 C-160 273.34 -160 272.68 -160 272 C-154 269 -154 269 -152.07519531 268.04199219 C-148.84442825 266.43213809 -145.62235125 264.8099764 -142.421875 263.140625 C-126.77193414 255.0433532 -110.37156712 248.48260877 -94 242 C-94.70157227 242.13575439 -95.40314453 242.27150879 -96.12597656 242.41137695 C-143.46813403 251.47110469 -202.54735806 259.82464636 -246 233 C-254.77862861 227.01405116 -263.21771634 219.62894882 -266 209 C-266.91376866 200.86932378 -266.83131468 193.79903556 -262 187 C-261.319375 185.989375 -260.63875 184.97875 -259.9375 183.9375 C-248.77114839 171.36679128 -229.66574557 167.23440143 -213.671875 166.125 C-212.79015625 166.08375 -211.9084375 166.0425 -211 166 C-210.13890625 165.95875 -209.2778125 165.9175 -208.390625 165.875 C-172.13827114 165.05573777 -137.04861045 176.71319196 -104.10253906 190.68505859 C-99.0785271 192.81437308 -94.03835935 194.90491325 -89 197 C-89.48130371 196.67950684 -89.96260742 196.35901367 -90.45849609 196.02880859 C-105.94332927 185.67751434 -121.07080274 174.91003625 -134.69140625 162.16015625 C-136.77166136 160.21365697 -138.89596313 158.34906414 -141.0625 156.5 C-149.58047723 149.05980765 -157.04507534 140.90524744 -164 132 C-165.11181641 130.59621094 -165.11181641 130.59621094 -166.24609375 129.1640625 C-179.75135288 111.70319021 -192.226684 90.42809634 -191.34765625 67.53515625 C-190.18831007 59.08104759 -187.93174463 50.45595384 -181 45 C-172.15061974 39.05893979 -163.60616765 38.1531603 -153.25 39.9375 C-122.84515834 47.33955206 -100.95600044 75.67695322 -85.5 101.06640625 C-83.33778392 104.67271508 -81.23477139 108.31058873 -79.15820312 111.96679688 C-78.1354755 113.76217538 -77.09267257 115.54608594 -76.046875 117.328125 C-66.67446553 133.94643087 -60.01755013 152.29140573 -53 170 C-53.17128418 169.01418945 -53.34256836 168.02837891 -53.51904297 167.01269531 C-59.89323488 130.18581847 -66.28450503 91.095167 -58 54 C-57.83902832 53.24638184 -57.67805664 52.49276367 -57.51220703 51.71630859 C-53.37812344 33.02357903 -45.35982625 12.32308048 -28.953125 1.1484375 C-20.15908637 -4.02245721 -9.06988636 -5.44889526 0 0 Z M-52 174 C-51 177 -51 177 -51 177 Z M-11 177 C-10 179 -10 179 -10 179 Z M-64 272 C-63 274 -63 274 -63 274 Z M-24 273 C-23 275 -23 275 -23 275 Z M-65 274 C-64 276 -64 276 -64 276 Z M-23 276 C-22 279 -22 279 -22 279 Z " fill="#040304" transform="translate(288,22)"/>
<path d="M0 0 C47.96728543 -1.08400645 97.70067281 17.87868935 138.390625 42.125 C137.91496094 44.04119141 137.91496094 44.04119141 137.4296875 45.99609375 C136.30376811 51.06273099 135.95834341 56.01220776 135.765625 61.1875 C135.72695312 62.05310547 135.68828125 62.91871094 135.6484375 63.81054688 C135.55542019 65.91506359 135.47199831 68.0200009 135.390625 70.125 C127.965625 72.105 127.965625 72.105 120.390625 74.125 C121.73125 73.815625 123.071875 73.50625 124.453125 73.1875 C128.42248973 72.3019297 132.35772113 71.63983879 136.390625 71.125 C136.74253906 71.83785156 137.09445313 72.55070312 137.45703125 73.28515625 C142.67368139 83.4051851 148.53976576 90.46942031 159.56640625 94.19921875 C170.03177675 96.73271498 181.30064342 96.60973827 190.75390625 91.125 C195.28359275 87.68914891 198.89788252 83.58794873 202.390625 79.125 C205.13960517 79.77688344 207.79336855 80.54679249 210.453125 81.5 C211.12472656 81.73460937 211.79632813 81.96921875 212.48828125 82.2109375 C214.390625 83.125 214.390625 83.125 215.70703125 84.46484375 C218.21466769 86.93757109 221.25573332 88.52489186 224.265625 90.3125 C242.98536297 101.70845146 260.53778632 116.01915371 276.390625 131.125 C276.99100586 131.69669922 277.59138672 132.26839844 278.20996094 132.85742188 C287.08889751 141.37423351 295.18581271 150.14465367 302.390625 160.125 C302.82213867 160.71748535 303.25365234 161.3099707 303.69824219 161.92041016 C317.07797692 180.49339764 327.14620577 201.69386164 324.390625 225.125 C322.74891739 232.20980235 319.41375735 238.47175143 313.2109375 242.5625 C303.2727686 248.29731222 294.5707196 247.86085982 283.61938477 245.09960938 C253.26195259 236.58467674 231.75866979 206.18545143 216.69335938 180.35449219 C215.85398001 178.91798313 215.0068868 177.48593993 214.15039062 176.05957031 C208.13106056 166.03220002 203.22517659 155.59204143 198.578125 144.875 C198.30526672 144.24750854 198.03240845 143.62001709 197.75128174 142.97351074 C193.92880713 134.14388045 190.52308115 125.21950909 187.390625 116.125 C187.56190918 117.185979 187.73319336 118.24695801 187.90966797 119.34008789 C205.61689748 229.49514438 205.61689748 229.49514438 176.453125 271.125 C175.12840195 272.81516389 173.77535605 274.48363926 172.390625 276.125 C171.76414063 276.87523437 171.13765625 277.62546875 170.4921875 278.3984375 C164.85912982 284.58330491 158.48914923 288.37557837 150.1484375 289.6015625 C141.34339318 289.99519978 134.8508872 288.03471106 128.20703125 282.2109375 C112.45809453 265.83680669 110.84510713 242.29584179 111.1171875 220.77734375 C112.24430196 182.78465897 126.81134304 146.23621295 142.390625 112.125 C138.8455848 116.78845781 135.39671051 121.50228161 132.0546875 126.31323242 C126.80478824 133.86603888 121.35599838 141.11644588 115.390625 148.125 C114.55917969 149.14078125 113.72773438 150.1565625 112.87109375 151.203125 C90.11047045 178.77370974 59.70124851 208.20856573 22.73828125 213.6640625 C12.72223304 214.59932867 2.88137251 214.04386133 -5.609375 208.125 C-12.24569851 202.36818925 -14.89692935 196.10954344 -15.921875 187.5 C-16.76586245 169.35426988 -5.73957045 153.39471857 5.88818359 140.45898438 C15.97692793 129.60840437 27.38187834 120.69908607 39.640625 112.4375 C40.28499512 112.00284424 40.92936523 111.56818848 41.59326172 111.12036133 C46.13925665 108.125 46.13925665 108.125 48.390625 108.125 C48.390625 107.465 48.390625 106.805 48.390625 106.125 C54.390625 103.125 54.390625 103.125 56.31542969 102.16699219 C59.54619675 100.55713809 62.76827375 98.9349764 65.96875 97.265625 C81.61869086 89.1683532 98.01905788 82.60760877 114.390625 76.125 C113.3382666 76.32863159 113.3382666 76.32863159 112.26464844 76.53637695 C64.92249097 85.59610469 5.84326694 93.94964636 -37.609375 67.125 C-46.38800361 61.13905116 -54.82709134 53.75394882 -57.609375 43.125 C-58.52314366 34.99432378 -58.44068968 27.92403556 -53.609375 21.125 C-52.92875 20.114375 -52.248125 19.10375 -51.546875 18.0625 C-40.38052339 5.49179128 -21.27512057 1.35940143 -5.28125 0.25 C-3.52078757 0.16763918 -1.76036925 0.08432907 0 0 Z M144.390625 106.125 C145.390625 108.125 145.390625 108.125 145.390625 108.125 Z M184.390625 107.125 C185.390625 109.125 185.390625 109.125 185.390625 109.125 Z M143.390625 108.125 C144.390625 110.125 144.390625 110.125 144.390625 110.125 Z M185.390625 110.125 C186.390625 113.125 186.390625 113.125 186.390625 113.125 Z " fill="#030303" transform="translate(79.609375,187.875)"/>
<path d="M0 0 C14.46626572 13.87105264 25.50214947 31.43028393 35.33789062 48.74804688 C36.36061825 50.54342538 37.40342118 52.32733594 38.44921875 54.109375 C43.3938575 62.87675967 47.29147425 72.07470849 51.18359375 81.34375 C51.45990631 82.00038635 51.73621887 82.65702271 52.02090454 83.33355713 C62.49609375 108.31576279 62.49609375 108.31576279 62.49609375 113.78125 C63.15609375 113.78125 63.81609375 113.78125 64.49609375 113.78125 C65.00080572 115.55074612 65.4997006 117.32190223 65.99609375 119.09375 C66.41375 120.57294922 66.41375 120.57294922 66.83984375 122.08203125 C67.49609375 124.78125 67.49609375 124.78125 67.49609375 127.78125 C68.15609375 127.45125 68.81609375 127.12125 69.49609375 126.78125 C78.69351881 126.17661523 86.73870151 126.72253504 95.49609375 129.78125 C95.49609375 130.44125 95.49609375 131.10125 95.49609375 131.78125 C96.38167969 132.20083984 96.38167969 132.20083984 97.28515625 132.62890625 C104.31053241 136.29054223 107.68839501 141.32235813 111.0390625 148.390625 C112.62483195 150.99247729 113.68040138 151.74420698 116.49609375 152.78125 C115.50609375 152.78125 114.51609375 152.78125 113.49609375 152.78125 C113.5425 153.96460938 113.58890625 155.14796875 113.63671875 156.3671875 C113.87745914 165.26141659 113.99311375 172.7910091 109.49609375 180.78125 C110.15609375 181.11125 110.81609375 181.44125 111.49609375 181.78125 C110.903125 182.03261719 110.31015625 182.28398437 109.69921875 182.54296875 C107.21810455 183.9374957 105.99991772 185.3674152 104.24609375 187.59375 C100.81476916 191.65095998 97.22754004 194.38769482 92.49609375 196.78125 C91.77164063 197.14863281 91.0471875 197.51601563 90.30078125 197.89453125 C86.41944148 199.12164006 82.79394261 199.12007272 78.74609375 199.09375 C77.54436523 199.09290405 77.54436523 199.09290405 76.31835938 199.09204102 C70.49621218 199.00144007 65.90680549 198.00350661 60.49609375 195.78125 C59.83609375 196.11125 59.17609375 196.44125 58.49609375 196.78125 C58.16609375 195.79125 57.83609375 194.80125 57.49609375 193.78125 C55.7995093 192.13817885 55.7995093 192.13817885 53.74609375 190.53125 C48.52495519 186.09608929 44.69934443 181.39100203 42.49609375 174.78125 C41.83222656 174.91402344 41.16835937 175.04679688 40.484375 175.18359375 C36.15494792 176.04947917 31.82552083 176.91536458 27.49609375 177.78125 C27.16609375 177.12125 26.83609375 176.46125 26.49609375 175.78125 C28.43246415 175.27689306 30.37023521 174.77791126 32.30859375 174.28125 C33.92701172 173.86359375 33.92701172 173.86359375 35.578125 173.4375 C38.49609375 172.78125 38.49609375 172.78125 41.49609375 172.78125 C41.44388672 170.88052734 41.44388672 170.88052734 41.390625 168.94140625 C41.36246138 167.24220089 41.335164 165.54298102 41.30859375 163.84375 C41.28345703 163.01294922 41.25832031 162.18214844 41.23242188 161.32617188 C41.1618349 155.27922101 42.24144977 150.38608651 44.49609375 144.78125 C43.22765625 144.41 43.22765625 144.41 41.93359375 144.03125 C37.30268111 142.34728177 33.09753653 140.40894594 29.58984375 136.84375 C27.3992848 134.68588596 25.24838372 133.24540107 22.62109375 131.65625 C7.42889223 122.17373378 -6.93285108 111.23006911 -20.0546875 99.046875 C-22.18778492 97.07367483 -24.35749612 95.16830297 -26.56640625 93.28125 C-35.08438348 85.84105765 -42.54898159 77.68649744 -49.50390625 68.78125 C-50.24511719 67.84539062 -50.98632812 66.90953125 -51.75 65.9453125 C-65.25525913 48.48444021 -77.73059025 27.20934634 -76.8515625 4.31640625 C-75.6966696 -4.10522852 -73.45077282 -12.80906241 -66.50390625 -18.21875 C-42.70554996 -33.02489349 -18.14120008 -16.07519757 0 0 Z " fill="#040404" transform="translate(173.50390625,85.21875)"/>
<path d="M0 0 C0.66 0 1.32 0 2 0 C2.66 3.63 3.32 7.26 4 11 C4.66 10.67 5.32 10.34 6 10 C15.19742506 9.39536523 23.24260776 9.94128504 32 13 C32 13.66 32 14.32 32 15 C32.59039062 15.27972656 33.18078125 15.55945313 33.7890625 15.84765625 C40.81443866 19.50929223 44.19230126 24.54110813 47.54296875 31.609375 C49.1287382 34.21122729 50.18430763 34.96295698 53 36 C52.01 36 51.02 36 50 36 C50.04640625 37.18335938 50.0928125 38.36671875 50.140625 39.5859375 C50.38136539 48.48016659 50.49702 56.0097591 46 64 C46.66 64.33 47.32 64.66 48 65 C47.40703125 65.25136719 46.8140625 65.50273437 46.203125 65.76171875 C43.7220108 67.1562457 42.50382397 68.5861652 40.75 70.8125 C37.31867541 74.86970998 33.73144629 77.60644482 29 80 C27.91332031 80.55107422 27.91332031 80.55107422 26.8046875 81.11328125 C22.92334773 82.34039006 19.29784886 82.33882272 15.25 82.3125 C14.44884766 82.31193604 13.64769531 82.31137207 12.82226562 82.31079102 C7.00011843 82.22019007 2.41071174 81.22225661 -3 79 C-3.99 79.495 -3.99 79.495 -5 80 C-5.33 79.01 -5.66 78.02 -6 77 C-7.69658445 75.35692885 -7.69658445 75.35692885 -9.75 73.75 C-14.97113856 69.31483929 -18.79674932 64.60975203 -21 58 C-21.99580078 58.19916016 -21.99580078 58.19916016 -23.01171875 58.40234375 C-27.34114583 59.26822917 -31.67057292 60.13411458 -36 61 C-36.33 60.34 -36.66 59.68 -37 59 C-35.0636296 58.49564306 -33.12585854 57.99666126 -31.1875 57.5 C-30.10855469 57.2215625 -29.02960938 56.943125 -27.91796875 56.65625 C-25 56 -25 56 -22 56 C-22.04640625 54.74445313 -22.0928125 53.48890625 -22.140625 52.1953125 C-22.48704197 39.06033561 -21.68958405 29.97628671 -12.29296875 20.05078125 C-8.01609821 16.2256415 -2.91086539 12 3 12 C2.01 8.04 1.02 4.08 0 0 Z " fill="#545454" transform="translate(237,202)"/>
<path d="M0 0 C0.66 0.33 1.32 0.66 2 1 C-0.53901285 3.3986586 -3.08168768 5.79340128 -5.625 8.1875 C-6.33785156 8.86103516 -7.05070312 9.53457031 -7.78515625 10.22851562 C-10.89888497 13.15656328 -14.00480608 16.05074532 -17.3203125 18.75 C-19.60190587 20.66574021 -21.40881536 22.49078641 -23.25 24.8125 C-24.703125 26.64453125 -24.703125 26.64453125 -26 28 C-26.66 28 -27.32 28 -28 28 C-26.39237525 23.99520699 -23.58620346 21.28294748 -20.5625 18.3125 C-20.03406494 17.78793213 -19.50562988 17.26336426 -18.96118164 16.72290039 C-14.61543201 12.47026011 -10.05307205 8.60572642 -5.27734375 4.83984375 C-3.38466439 3.3107666 -1.67330669 1.76108672 0 0 Z " fill="#484848" transform="translate(346,120)"/>
<path d="M0 0 C0 3.92709135 -1.27900462 4.8189713 -3.875 7.6875 C-4.59429687 8.49574219 -5.31359375 9.30398437 -6.0546875 10.13671875 C-8 12 -8 12 -10 12 C-8.52278578 8.54798361 -6.56205999 6.35038064 -3.875 3.75 C-3.15054687 3.04359375 -2.42609375 2.3371875 -1.6796875 1.609375 C-1.12539063 1.07828125 -0.57109375 0.5471875 0 0 Z " fill="#606060" transform="translate(328,136)"/>
<path d="M0 0 C0.66 0.33 1.32 0.66 2 1 C-1.63 4.63 -5.26 8.26 -9 12 C-9 7.8407692 -6.75316432 5.85455565 -4 3 C-1.6875 1.125 -1.6875 1.125 0 0 Z " fill="#505050" transform="translate(35,200)"/>
<path d="" fill="#FFFFFF" transform="translate(0,0)"/>
<path d="" fill="#FFFFFF" transform="translate(0,0)"/>
<path d="" fill="#FFFFFF" transform="translate(0,0)"/>
<path d="" fill="#FFFFFF" transform="translate(0,0)"/>
<path d="" fill="#FFFFFF" transform="translate(0,0)"/>
<path d="" fill="#FFFFFF" transform="translate(0,0)"/>
<path d="" fill="#FFFFFF" transform="translate(0,0)"/>
<path d="" fill="#FFFFFF" transform="translate(0,0)"/>
<path d="" fill="#FFFFFF" transform="translate(0,0)"/>
<path d="" fill="#FFFFFF" transform="translate(0,0)"/>
<path d="" fill="#FFFFFF" transform="translate(0,0)"/>
<path d="" fill="#FFFFFF" transform="translate(0,0)"/>
<path d="" fill="#FFFFFF" transform="translate(0,0)"/>
<path d="" fill="#FFFFFF" transform="translate(0,0)"/>
<path d="" fill="#FFFFFF" transform="translate(0,0)"/>
<path d="" fill="#FFFFFF" transform="translate(0,0)"/>
<path d="" fill="#FFFFFF" transform="translate(0,0)"/>
<path d="" fill="#FFFFFF" transform="translate(0,0)"/>
<path d="" fill="#FFFFFF" transform="translate(0,0)"/>
<path d="" fill="#FFFFFF" transform="translate(0,0)"/>
<path d="" fill="#FFFFFF" transform="translate(0,0)"/>
<path d="" fill="#FFFFFF" transform="translate(0,0)"/>
<path d="" fill="#FFFFFF" transform="translate(0,0)"/>
<path d="" fill="#FFFFFF" transform="translate(0,0)"/>
<path d="" fill="#FFFFFF" transform="translate(0,0)"/>
<path d="" fill="#FFFFFF" transform="translate(0,0)"/>
<path d="" fill="#FFFFFF" transform="translate(0,0)"/>
<path d="" fill="#FFFFFF" transform="translate(0,0)"/>
<path d="" fill="#FFFFFF" transform="translate(0,0)"/>
<path d="" fill="#FFFFFF" transform="translate(0,0)"/>
<path d="" fill="#FFFFFF" transform="translate(0,0)"/>
<path d="" fill="#FFFFFF" transform="translate(0,0)"/>
<path d="" fill="#FFFFFF" transform="translate(0,0)"/>
<path d="" fill="#FFFFFF" transform="translate(0,0)"/>
<path d="" fill="#FFFFFF" transform="translate(0,0)"/>
<path d="" fill="#FFFFFF" transform="translate(0,0)"/>
<path d="" fill="#FFFFFF" transform="translate(0,0)"/>
<path d="" fill="#FFFFFF" transform="translate(0,0)"/>
<path d="" fill="#FFFFFF" transform="translate(0,0)"/>
<path d="" fill="#FFFFFF" transform="translate(0,0)"/>
<path d="" fill="#FFFFFF" transform="translate(0,0)"/>
<path d="" fill="#FFFFFF" transform="translate(0,0)"/>
<path d="" fill="#FFFFFF" transform="translate(0,0)"/>
<path d="" fill="#FFFFFF" transform="translate(0,0)"/>
<path d="" fill="#FFFFFF" transform="translate(0,0)"/>
<path d="" fill="#FFFFFF" transform="translate(0,0)"/>
<path d="" fill="#FFFFFF" transform="translate(0,0)"/>
<path d="" fill="#FFFFFF" transform="translate(0,0)"/>
</svg>
